<svg width="111" height="21" viewBox="0 0 111 21" fill="none" xmlns="http://www.w3.org/2000/svg">
<rect x="111" y="15.1364" width="5.04545" height="10.0909" transform="rotate(-180 111 15.1364)" fill="black"/>
<rect y="5.04546" width="5.04545" height="10.0909" fill="black"/>
<rect x="5.04545" y="20.1818" width="5.04545" height="10.0909" transform="rotate(-90 5.04545 20.1818)" fill="black"/>
<rect x="15.1364" width="5.04545" height="10.0909" transform="rotate(90 15.1364 0)" fill="black"/>
<rect x="50.4545" y="5.04546" width="5.04545" height="10.0909" fill="black"/>
<rect x="55.5" y="20.1818" width="5.04545" height="10.0909" transform="rotate(-90 55.5 20.1818)" fill="black"/>
<rect x="25.2273" y="20.1818" width="5.04545" height="10.0909" transform="rotate(-90 25.2273 20.1818)" fill="black"/>
<rect x="65.5909" width="5.04545" height="10.0909" transform="rotate(90 65.5909 0)" fill="black"/>
<rect x="65.5909" width="5.04545" height="10.0909" transform="rotate(90 65.5909 0)" fill="black"/>
<rect x="108.477" width="5.04545" height="10.0909" transform="rotate(90 108.477 0)" fill="black"/>
<rect x="108.477" y="15.1364" width="5.04545" height="10.0909" transform="rotate(90 108.477 15.1364)" fill="black"/>
<rect x="75.6818" y="7.56818" width="5.04545" height="5.04545" fill="black"/>
<rect x="80.7273" y="12.6136" width="5.04545" height="5.04545" fill="black"/>
<rect x="83.25" y="15.1364" width="5.04545" height="5.04545" fill="black"/>
<rect x="80.7273" y="2.52272" width="5.04545" height="5.04545" fill="black"/>
<rect x="83.25" width="5.04545" height="5.04545" fill="black"/>
<rect x="20.1818" width="5.04545" height="20.1818" fill="black"/>
<rect x="40.3636" width="5.04545" height="20.1818" fill="black"/>
<rect x="70.6364" width="5.04545" height="20.1818" fill="black"/>
<rect x="93.3409" width="5.04545" height="20.1818" fill="black"/>
</svg>
