<svg width="660" height="120" viewBox="0 0 660 120" fill="none" xmlns="http://www.w3.org/2000/svg">
<rect x="660" y="90" width="30" height="60" transform="rotate(-180 660 90)" fill="black"/>
<rect y="30" width="30" height="60" fill="black"/>
<rect x="30" y="120" width="30" height="60" transform="rotate(-90 30 120)" fill="black"/>
<rect x="90" width="30" height="60" transform="rotate(90 90 0)" fill="black"/>
<rect x="300" y="30" width="30" height="60" fill="black"/>
<rect x="330" y="120" width="30" height="60" transform="rotate(-90 330 120)" fill="black"/>
<rect x="150" y="120" width="30" height="60" transform="rotate(-90 150 120)" fill="black"/>
<rect x="390" width="30" height="60" transform="rotate(90 390 0)" fill="black"/>
<rect x="390" width="30" height="60" transform="rotate(90 390 0)" fill="black"/>
<rect x="645" width="30" height="60" transform="rotate(90 645 0)" fill="black"/>
<rect x="645" y="90" width="30" height="60" transform="rotate(90 645 90)" fill="black"/>
<rect x="450" y="45" width="30" height="30" fill="black"/>
<rect x="480" y="75" width="30" height="30" fill="black"/>
<rect x="495" y="90" width="30" height="30" fill="black"/>
<rect x="480" y="15" width="30" height="30" fill="black"/>
<rect x="495" width="30" height="30" fill="black"/>
<rect x="120" width="30" height="120" fill="black"/>
<rect x="240" width="30" height="120" fill="black"/>
<rect x="420" width="30" height="120" fill="black"/>
<rect x="555" width="30" height="120" fill="black"/>
</svg>
