<svg width="788" height="140" viewBox="0 0 788 140" fill="none" xmlns="http://www.w3.org/2000/svg">
<rect x="788" y="105" width="35" height="70" transform="rotate(-180 788 105)" fill="white"/>
<rect y="35" width="35" height="70" fill="white"/>
<rect x="35" y="140" width="35" height="70" transform="rotate(-90 35 140)" fill="white"/>
<rect x="105" y="1.52588e-05" width="35" height="70" transform="rotate(90 105 1.52588e-05)" fill="white"/>
<rect x="350" y="35" width="35" height="70" fill="white"/>
<rect x="385" y="140" width="35" height="70" transform="rotate(-90 385 140)" fill="white"/>
<rect x="175" y="140" width="35" height="70" transform="rotate(-90 175 140)" fill="white"/>
<rect x="455" width="35" height="70" transform="rotate(90 455 0)" fill="white"/>
<rect x="455" width="35" height="70" transform="rotate(90 455 0)" fill="white"/>
<rect x="752.5" width="35" height="70" transform="rotate(90 752.5 0)" fill="white"/>
<rect x="752.5" y="105" width="35" height="70" transform="rotate(90 752.5 105)" fill="white"/>
<rect x="525" y="52.5" width="35" height="35" fill="white"/>
<rect x="560" y="87.5" width="35" height="35" fill="white"/>
<rect x="577.5" y="105" width="35" height="35" fill="white"/>
<rect x="560" y="17.5" width="35" height="35" fill="white"/>
<rect x="577.5" width="35" height="35" fill="white"/>
<rect x="140" width="35" height="140" fill="white"/>
<rect x="280" width="35" height="140" fill="white"/>
<rect x="490" width="35" height="140" fill="white"/>
<rect x="647.5" width="35" height="140" fill="white"/>
</svg>
